<svg width="99" height="99" viewBox="0 0 99 99" fill="none" xmlns="http://www.w3.org/2000/svg">
<rect x="0.962891" y="0.260742" width="98" height="98" rx="16" fill="#97AAB1"/>
<path d="M49.9628 81.1816C67.5922 81.1816 81.8836 66.8902 81.8836 49.2609C81.8836 31.6315 67.5922 17.3401 49.9628 17.3401C32.3334 17.3401 18.042 31.6315 18.042 49.2609C18.042 66.8902 32.3334 81.1816 49.9628 81.1816Z" fill="white"/>
<path d="M49.9626 69.5741C61.1813 69.5741 70.2759 60.4795 70.2759 49.2609C70.2759 38.0422 61.1813 28.9476 49.9626 28.9476C38.744 28.9476 29.6494 38.0422 29.6494 49.2609C29.6494 60.4795 38.744 69.5741 49.9626 69.5741Z" fill="#96C889"/>
<path d="M49.9627 82.9227C31.3906 82.9227 16.3008 67.8329 16.3008 49.2608C16.3008 30.6887 31.3906 15.5989 49.9627 15.5989C68.5348 15.5989 83.6246 30.6887 83.6246 49.2608C83.6246 67.8329 68.5348 82.9227 49.9627 82.9227ZM49.9627 19.0811C33.3059 19.0811 19.783 32.6039 19.783 49.2608C19.783 65.9176 33.3059 79.4404 49.9627 79.4404C66.6196 79.4404 80.1424 65.9176 80.1424 49.2608C80.1424 32.6039 66.6196 19.0811 49.9627 19.0811Z" fill="#090909"/>
<path d="M56.4049 55.0066C56.4049 52.8592 55.3602 50.8859 53.6191 49.6671L48.2216 45.9527C47.4671 45.3723 47.0028 44.5017 47.0028 43.5151C47.0028 41.89 48.3376 40.5551 49.9627 40.5551C51.1815 40.5551 52.2262 41.2516 52.6905 42.3543C53.0387 43.2249 54.0834 43.6311 54.954 43.2829C55.8245 42.9347 56.2308 41.89 55.8826 41.0194C55.1281 39.1622 53.561 37.8274 51.7038 37.305V37.0729C51.7038 36.0862 50.9493 35.3317 49.9627 35.3317C48.9761 35.3317 48.2216 36.0862 48.2216 37.0729V37.305C45.4938 38.0595 43.5205 40.5551 43.5205 43.5151C43.5205 45.6044 44.5071 47.5197 46.2483 48.7385L51.6458 52.5109C52.4583 53.0913 52.9226 53.9619 52.9226 54.9485C52.9226 56.5736 51.5878 57.9084 49.9627 57.9084C48.8019 57.9084 47.6992 57.212 47.2349 56.1093C46.8287 55.2387 45.842 54.8324 44.9715 55.1807C44.1009 55.5869 43.6946 56.5736 44.0428 57.4441C44.8554 59.2433 46.3644 60.5782 48.2216 61.1005V61.4488C48.2216 62.4354 48.9761 63.1899 49.9627 63.1899C50.9493 63.1899 51.7038 62.4354 51.7038 61.4488V61.2166C54.4316 60.4621 56.4049 57.9665 56.4049 55.0066Z" fill="white"/>
</svg>
