<svg width="172" height="172" viewBox="0 0 172 172" fill="none" xmlns="http://www.w3.org/2000/svg">
<circle cx="86" cy="86" r="86" fill="#97AAB1"/>
<mask id="mask0_1107_41788" style="mask-type:alpha" maskUnits="userSpaceOnUse" x="0" y="0" width="172" height="172">
<circle cx="86" cy="86" r="86" fill="#F7F8F0"/>
</mask>
<g mask="url(#mask0_1107_41788)">
</g>
<g clip-path="url(#clip0_1107_41788)">
<circle cx="86" cy="86" r="53" fill="#96C889"/>
<path d="M94.1408 55.2209C92.8592 54.5439 91.3003 54.793 90.2838 55.8404L67.0963 79.6842C66.4172 80.3825 66.0653 81.349 66.1336 82.3347C66.202 83.3204 66.6823 84.2251 67.4503 84.8192L79.09 93.7946L76.1088 112.19C75.8727 113.651 76.5808 115.1 77.8602 115.78C78.3406 116.033 78.8602 116.156 79.3757 116.156C80.2349 116.156 81.0816 115.814 81.7193 115.158L104.907 91.3142C105.586 90.6159 105.936 89.6494 105.869 88.6636C105.801 87.6779 105.321 86.7732 104.553 86.1792L92.913 77.2037L95.8943 58.8082C96.1303 57.3478 95.4222 55.898 94.1428 55.2188L94.1408 55.2209ZM97.5195 89.2752L84.342 102.826L85.9548 92.8732C86.1576 91.6192 85.6649 90.3525 84.6753 89.5883L74.4808 81.7262L87.6583 68.1757L86.0456 78.1283C85.8427 79.3822 86.3354 80.6489 87.325 81.4132L97.5195 89.2752Z" fill="white"/>
<path d="M123.48 46.9621C113.47 36.6689 100.16 31 86.0026 31C77.5247 31 69.4233 32.9969 61.923 36.9375C56.0122 40.0435 50.6622 44.3312 46.2526 49.4616V44.6247C46.2526 42.7428 44.7703 41.2185 42.9401 41.2185C41.1099 41.2185 39.6276 42.7428 39.6276 44.6247V58.2497C39.6276 60.1317 41.1099 61.656 42.9401 61.656H56.1901C58.0203 61.656 59.5026 60.1317 59.5026 58.2497C59.5026 56.3678 58.0203 54.8435 56.1901 54.8435H50.4802C59.3206 43.988 72.1271 37.8122 86.0025 37.8122C111.573 37.8122 132.378 59.2053 132.378 85.4997C132.378 90.79 131.539 95.9892 129.887 100.951C129.295 102.731 130.218 104.668 131.949 105.277C132.305 105.403 132.665 105.463 133.021 105.463C134.398 105.463 135.684 104.573 136.156 103.159C138.044 97.4856 139.003 91.5433 139.003 85.502C139.003 70.9441 133.489 57.2574 123.48 46.9642V46.9621Z" fill="black"/>
<path d="M129.062 109.344H115.812C113.982 109.344 112.5 110.868 112.5 112.75C112.5 114.632 113.982 116.156 115.812 116.156H121.522C112.68 127.012 99.8755 133.187 86.0001 133.187C60.4294 133.187 39.6251 111.794 39.6251 85.4999C39.6251 80.2096 40.4636 75.0105 42.1156 70.0483C42.7078 68.2685 41.7844 66.3312 40.0536 65.7223C38.3228 65.1135 36.4388 66.063 35.8467 67.8428C33.9586 73.5163 33 79.4585 33 85.4998C33 100.058 38.5132 113.744 48.5228 124.038C58.5324 134.331 71.8428 140 86 140C94.478 140 102.579 138.003 110.08 134.062C115.99 130.956 121.34 126.669 125.75 121.538V126.375C125.75 128.257 127.232 129.781 129.062 129.781C130.893 129.781 132.375 128.257 132.375 126.375V112.75C132.375 110.868 130.893 109.344 129.062 109.344V109.344Z" fill="black"/>
</g>
<defs>
<clipPath id="clip0_1107_41788">
<rect width="106" height="109" fill="white" transform="translate(33 31)"/>
</clipPath>
</defs>
</svg>
