<svg width="172" height="172" viewBox="0 0 172 172" fill="none" xmlns="http://www.w3.org/2000/svg">
<circle cx="86" cy="86" r="86" fill="#97AAB1"/>
<mask id="mask0_1107_44518" style="mask-type:alpha" maskUnits="userSpaceOnUse" x="0" y="0" width="172" height="172">
<circle cx="86" cy="86" r="86" fill="#F7F8F0"/>
</mask>
<g mask="url(#mask0_1107_44518)">
<g clip-path="url(#clip0_1107_44518)">
<path d="M69.8608 104.797L50.8734 122.645L48.2152 125.683L65.4937 141.823L72.8987 134.418H98.3418L119.797 115.81L117.329 106.886L110.873 104.797L96.0633 115.81L91.8861 104.797H69.8608Z" fill="white"/>
<path d="M29.4177 71.5695L31.3165 56.9492H46.1266L59.038 63.7847L65.1139 75.3669L63.2152 89.0378L51.2532 91.3163L37.0127 85.9999L29.4177 71.5695Z" fill="#96C889"/>
<path d="M77.5475 36.2378L90.4158 29.0432L99.2478 40.9317L101.461 55.3723L95.7866 67.1567L83.6803 73.7851L74.7178 65.5417L70.4931 50.94L77.5475 36.2378Z" fill="#96C889"/>
<path d="M129.942 56.201L144.053 60.4721L141.624 75.0817L132.763 86.697L120.341 90.7909L107.167 86.6755L106.881 74.5017L114.461 61.3261L129.942 56.201Z" fill="#96C889"/>
<path d="M112.841 101.016C109.846 100.859 106.965 101.874 104.734 103.88L98.7106 109.224C97.3864 104.487 93.0294 101.002 87.8726 101.002H72.8726C69.8796 101.002 67.0648 102.162 64.9414 104.274L45.8914 122.682C45.1672 123.38 44.757 124.341 44.7476 125.347C44.7382 126.352 45.1343 127.32 45.8468 128.03L62.7218 144.905C63.4249 145.608 64.3788 146.004 65.3726 146.004C66.3664 146.004 67.3203 145.608 68.0234 144.905L74.4242 138.504H95.3702C98.1546 138.504 100.826 137.478 102.88 135.631L119.771 120.615C124.381 116.464 124.756 109.337 120.607 104.727C118.596 102.493 115.838 101.176 112.835 101.017L112.841 101.016ZM114.777 115.022L97.8859 130.038C97.1968 130.659 96.3039 131.001 95.3781 131.001H72.8781C71.8844 131.001 70.9304 131.397 70.2273 132.1L65.3781 136.95L53.8511 125.423L70.1801 109.645C70.1965 109.63 70.2106 109.614 70.227 109.6C70.9348 108.892 71.877 108.501 72.8778 108.501H87.8778C89.945 108.501 91.6278 110.184 91.6278 112.251C91.6278 114.318 89.945 116.001 87.8778 116.001H78.5028C76.4309 116.001 74.7528 117.679 74.7528 119.751C74.7528 121.823 76.4309 123.501 78.5028 123.501H92.4998C93.4162 123.501 94.3021 123.166 94.9889 122.556L109.724 109.48C109.724 109.48 109.738 109.469 109.743 109.462C110.488 108.791 111.449 108.449 112.447 108.505C113.448 108.557 114.367 108.997 115.037 109.74C116.42 111.278 116.296 113.652 114.775 115.021L114.777 115.022Z" fill="black"/>
<path d="M84.322 78.104C84.8493 78.3688 85.4236 78.5001 86.0001 78.5001C86.5766 78.5001 87.1485 78.3688 87.6782 78.104C88.3743 77.7548 104.75 69.3712 104.75 52.25C104.75 35.1288 88.3742 26.745 87.6782 26.396C86.6235 25.8687 85.379 25.8687 84.3243 26.396C83.6282 26.7452 67.2523 35.1288 67.2523 52.25C67.2523 69.3712 83.6283 77.755 84.3243 78.104H84.322ZM86.0001 34.109C89.5063 36.4059 97.2501 42.577 97.2501 52.25C97.2501 59.1688 93.2868 64.295 89.7501 67.491V52.25C89.7501 50.1781 88.072 48.5 86.0001 48.5C83.9282 48.5 82.2501 50.1781 82.2501 52.25V67.491C78.711 64.2918 74.7501 59.166 74.7501 52.25C74.7501 42.575 82.5009 36.404 86.0001 34.109Z" fill="black"/>
<path d="M64.662 93.2838C65.7823 92.9112 66.6612 92.0322 67.0339 90.9119C67.2847 90.1619 73.0222 72.3819 60.7316 60.0939C48.4406 47.8059 30.6636 53.5408 29.9136 53.7916C28.7933 54.1643 27.9144 55.0432 27.5417 56.1635C27.2909 56.9135 21.5534 74.6935 33.844 86.9815C40.1299 93.2674 47.853 94.8377 53.998 94.8377C59.8668 94.8377 64.296 93.4057 64.664 93.2838H64.662ZM34.179 60.4318C38.3415 59.5599 48.424 58.3951 55.427 65.3982C60.4708 70.442 61.277 77.0842 61.0098 81.9592L51.1496 72.099C49.6848 70.6342 47.3105 70.6342 45.8457 72.099C44.3809 73.5638 44.3809 75.9381 45.8457 77.4029L55.7035 87.2607C50.8285 87.5303 44.1865 86.724 39.1425 81.6802C32.137 74.6747 33.3042 64.5872 34.1761 60.4322L34.179 60.4318Z" fill="black"/>
<path d="M144.46 56.164C144.087 55.0437 143.208 54.1648 142.088 53.7921C141.338 53.5413 123.558 47.8038 111.27 60.0944C98.9791 72.3854 104.717 90.1624 104.968 90.9124C105.34 92.0327 106.219 92.9116 107.34 93.2843C107.705 93.4062 112.135 94.8382 118.004 94.8382C123.872 94.8382 131.872 93.2679 138.158 86.982C150.449 74.691 144.711 56.914 144.46 56.164ZM132.856 81.678C127.81 86.7218 121.17 87.528 116.295 87.2608L126.155 77.4006C127.62 75.9358 127.62 73.5615 126.155 72.0967C124.69 70.6319 122.316 70.6319 120.851 72.0967L110.994 81.9545C110.724 77.0795 111.53 70.4395 116.574 65.3935C123.582 58.388 133.669 59.5552 137.822 60.4271C138.694 64.5896 139.861 74.6701 132.856 81.6751L132.856 81.678Z" fill="black"/>
</g>
</g>
<defs>
<clipPath id="clip0_1107_44518">
<rect width="120" height="120" fill="white" transform="translate(26 26)"/>
</clipPath>
</defs>
</svg>
