<svg width="172" height="172" viewBox="0 0 172 172" fill="none" xmlns="http://www.w3.org/2000/svg">
<circle cx="86" cy="86" r="86" fill="#97AAB1"/>
<mask id="mask0_1107_44931" style="mask-type:alpha" maskUnits="userSpaceOnUse" x="0" y="0" width="172" height="172">
<path d="M172 86C172 133.496 133.496 172 86 172C38.5035 172 0 133.496 0 86C0 38.5035 38.5035 0 86 0C133.496 0 172 38.5035 172 86Z" fill="#F7F8F0"/>
</mask>
<g mask="url(#mask0_1107_44931)">
<g clip-path="url(#clip0_1107_44931)">
<path d="M61 37L81.5 31.5L99.5 37L117 49L122.5 70L130 99.5L122.5 103.5V125.5H97.5V138.5H51L54.5 121.5L53 110.5L47.5 92.5L42.5 74L47.5 53.5L61 37Z" fill="white"/>
<path d="M69.8853 66.442L81.2875 52.7593L95.1331 64.3244L97.7394 75.7267L93.1785 87.4547L83.0793 94.459L74.6091 89.7352L69.8853 79.7989V66.442Z" fill="#96C889"/>
<path d="M133.113 99.0039L126.031 70.6736C125.789 47.1005 106.538 28 82.9084 28C59.2787 28 39.7834 47.3459 39.7834 71.125C39.7834 81.2277 42.9953 90.3003 45.8299 98.3052C48.2646 105.181 50.5646 111.676 50.5646 117.844C50.5646 127.884 47.1887 138.169 47.155 138.27C46.7889 139.366 46.9731 140.57 47.6492 141.509C48.3253 142.445 49.4101 143 50.5646 143H97.2834C99.269 143 100.877 141.392 100.877 139.406V128.625H122.44C124.425 128.625 126.033 127.017 126.033 125.031V105.69L131.235 103.089C132.742 102.337 133.524 100.636 133.115 99.0034L133.113 99.0039ZM120.831 100.255C119.614 100.864 118.846 102.108 118.846 103.469V121.438H97.2833C95.2977 121.438 93.6895 123.046 93.6895 125.032V135.813H55.315C56.4021 131.473 57.752 124.701 57.752 117.844C57.752 110.439 55.2521 103.379 52.6062 95.9069C49.8368 88.0838 46.9708 79.9938 46.9708 71.1254C46.9708 51.3099 63.0928 35.1879 82.9083 35.1879C102.724 35.1879 118.846 51.3099 118.846 71.1254C118.846 71.4196 118.882 71.7116 118.954 71.9969L125.443 97.9505L120.834 100.255L120.831 100.255Z" fill="black"/>
<path d="M84.5143 49.942C83.5036 49.4366 82.3109 49.4366 81.3002 49.942C80.6331 50.2767 64.9395 58.3109 64.9395 74.7188C64.9395 87.8153 74.9388 95.5778 79.3145 98.3474V103.469C79.3145 105.454 80.9227 107.062 82.9083 107.062C84.8938 107.062 86.502 105.454 86.502 103.469V98.3474C90.8774 95.578 100.877 87.8173 100.877 74.7188C100.877 58.3111 85.1833 50.2765 84.5163 49.942H84.5143ZM86.4999 89.3247V74.7188C86.4999 72.7332 84.8917 71.125 82.9062 71.125C80.9206 71.125 79.3124 72.7332 79.3124 74.7188V89.3247C75.9208 86.2588 72.1249 81.3466 72.1249 74.7188C72.1249 65.4469 79.5528 59.533 82.9062 57.3336C86.2663 59.5348 93.6874 65.4488 93.6874 74.7188C93.6874 81.347 89.8892 86.259 86.4999 89.3247Z" fill="black"/>
</g>
</g>
<defs>
<clipPath id="clip0_1107_44931">
<rect width="115" height="115" fill="white" transform="translate(29 28)"/>
</clipPath>
</defs>
</svg>
