<svg width="99" height="99" viewBox="0 0 99 99" fill="none" xmlns="http://www.w3.org/2000/svg">
<rect x="0.962891" y="0.260742" width="98" height="98" rx="16" fill="#97AAB1"/>
<path d="M52.1603 68.2159C48.9636 62.6218 42.9199 58.8257 35.9771 58.8257C29.0343 58.8257 22.9906 62.6218 19.7939 68.2659L19.8439 69.7643H52.1104L52.1603 68.2159ZM35.9771 35.2502C33.6589 35.2502 31.4356 36.1711 29.7964 37.8104C28.1571 39.4496 27.2362 41.6729 27.2362 43.9911C27.2362 46.3094 28.1571 48.5326 29.7964 50.1719C31.4356 51.8111 33.6589 52.732 35.9771 52.732C38.2954 52.732 40.5186 51.8111 42.1579 50.1719C43.7971 48.5326 44.718 46.3094 44.718 43.9911C44.718 41.6729 43.7971 39.4496 42.1579 37.8104C40.5186 36.1711 38.2954 35.2502 35.9771 35.2502V35.2502Z" fill="white"/>
<path d="M35.9772 54.1805C30.3331 54.1805 25.7379 49.5853 25.7379 43.9412C25.7379 38.5967 29.9335 34.1014 35.2779 33.7518C36.1271 33.7018 36.8263 34.3012 36.8763 35.1503C36.9262 35.9994 36.3269 36.6987 35.4777 36.7487C31.6817 36.9984 28.7347 40.1451 28.7347 43.9412C28.7347 47.937 31.9814 51.1837 35.9772 51.1837C37.2759 51.1837 38.5745 50.834 39.6734 50.1847C40.3726 49.7851 41.3217 49.9849 41.7212 50.6842C42.1208 51.3835 41.921 52.3325 41.2218 52.732C39.6234 53.6811 37.8253 54.1805 35.9772 54.1805ZM19.794 69.7144C19.5443 69.7144 19.2946 69.6644 19.0448 69.5146C18.3455 69.115 18.0958 68.216 18.4954 67.4667C21.0927 62.8715 25.4881 59.4251 30.5828 58.0265C31.382 57.8268 32.2311 58.2763 32.4309 59.0755C32.6307 59.8746 32.1812 60.7237 31.382 60.9235C27.0865 62.1223 23.3404 65.0692 21.0927 68.9652C20.8429 69.4647 20.3435 69.7144 19.794 69.7144Z" fill="#090909"/>
<path d="M47.7646 68.2159C50.9613 62.6217 57.005 58.8257 63.9478 58.8257C70.8906 58.8257 76.9343 62.6217 80.131 68.2658L80.0811 69.7643H47.8146L47.7646 68.2159ZM63.9478 35.2502C61.6296 35.2502 59.4063 36.1711 57.7671 37.8103C56.1278 39.4496 55.2069 41.6728 55.2069 43.9911C55.2069 46.3093 56.1278 48.5326 57.7671 50.1718C59.4063 51.8111 61.6296 52.732 63.9478 52.732C66.2661 52.732 68.4893 51.8111 70.1286 50.1718C71.7678 48.5326 72.6887 46.3093 72.6887 43.9911C72.6887 41.6728 71.7678 39.4496 70.1286 37.8103C68.4893 36.1711 66.2661 35.2502 63.9478 35.2502V35.2502Z" fill="white"/>
<path d="M63.9482 54.1805C62.1002 54.1805 60.302 53.681 58.7536 52.732C58.0544 52.3324 57.8046 51.3834 58.2542 50.6841C58.6537 49.9849 59.6028 49.7351 60.302 50.1847C61.4009 50.834 62.6995 51.1836 63.9982 51.1836C67.994 51.1836 71.2407 47.937 71.2407 43.9411C71.2407 40.1451 68.2937 36.9984 64.4977 36.7486C63.6486 36.6987 63.0492 35.9994 63.0991 35.1503C63.1491 34.3012 63.8483 33.7018 64.6975 33.7517C70.0419 34.1014 74.2375 38.5967 74.2375 43.9411C74.1876 49.6352 69.5924 54.1805 63.9482 54.1805ZM80.1314 69.7143C79.6319 69.7143 79.0825 69.4646 78.8328 68.9651C76.6351 65.0692 72.8889 62.1222 68.5435 60.9235C67.7443 60.7237 67.2948 59.8746 67.4946 59.0754C67.6943 58.2762 68.5435 57.8267 69.3426 58.0265C74.3874 59.425 78.7828 62.8715 81.4301 67.4667C81.8297 68.166 81.5799 69.115 80.8806 69.5146C80.6309 69.6644 80.3812 69.7143 80.1314 69.7143Z" fill="#090909"/>
<path d="M68.4931 68.0161C64.797 61.5728 57.9041 57.2274 49.9624 57.2274C42.0206 57.2274 35.1278 61.5728 31.4316 68.0161L31.4816 69.7144H68.4432L68.4931 68.0161ZM49.9624 30.2554C47.313 30.2554 44.7721 31.3079 42.8987 33.1813C41.0252 35.0547 39.9728 37.5956 39.9728 40.245C39.9728 42.8944 41.0252 45.4353 42.8987 47.3087C44.7721 49.1821 47.313 50.2346 49.9624 50.2346C52.6118 50.2346 55.1527 49.1821 57.0261 47.3087C58.8995 45.4353 59.952 42.8944 59.952 40.245C59.952 37.5956 58.8995 35.0547 57.0261 33.1813C55.1527 31.3079 52.6118 30.2554 49.9624 30.2554Z" fill="#96C889"/>
<path d="M49.9625 51.7331C43.6191 51.7331 38.4744 46.5885 38.4744 40.245C38.4744 33.9016 43.6191 28.757 49.9625 28.757C56.3059 28.757 61.4505 33.9016 61.4505 40.245C61.4505 46.5885 56.3059 51.7331 49.9625 51.7331ZM49.9625 31.7539C45.2673 31.7539 41.4713 35.5499 41.4713 40.245C41.4713 44.9402 45.2673 48.7362 49.9625 48.7362C54.6576 48.7362 58.4536 44.9402 58.4536 40.245C58.4536 35.5499 54.6576 31.7539 49.9625 31.7539ZM31.4317 69.7144C31.182 69.7144 30.9323 69.6645 30.6825 69.5146C29.9832 69.115 29.7335 68.216 30.1331 67.4668C34.1789 60.3741 41.771 55.9287 49.9625 55.9287C58.154 55.9287 65.7461 60.3741 69.7919 67.4668C70.1914 68.166 69.9417 69.115 69.2424 69.5146C68.5432 69.9142 67.5941 69.6645 67.1946 68.9652C63.6982 62.7716 57.105 58.9256 49.9625 58.9256C42.8698 58.9256 36.2767 62.7716 32.7304 68.9652C32.4806 69.4647 31.9812 69.7144 31.4317 69.7144Z" fill="#090909"/>
</svg>
