<svg width="99" height="99" viewBox="0 0 99 99" fill="none" xmlns="http://www.w3.org/2000/svg">
<rect x="0.962891" y="0.260742" width="98" height="98" rx="16" fill="#97AAB1"/>
<path d="M23.6049 81.0387C21.4899 81.0915 19.7979 79.4524 19.7979 77.3374V22.7703C19.7979 19.8622 22.1772 17.4828 25.0854 17.4828H72.6729V75.6454L23.6049 81.0387Z" fill="white"/>
<path d="M80.0751 80.9329V30.1728C80.0751 27.2647 77.6957 24.8853 74.7876 24.8853H32.4875C29.5794 24.8853 27.2 27.2647 27.2 30.1728V77.4432C27.2 79.3995 25.6137 81.0387 23.6045 81.0387L80.0751 80.9329Z" fill="white"/>
<path d="M23.499 82.6249C22.1242 82.6249 20.8023 82.0962 19.8506 81.1444C18.7931 80.1398 18.2643 78.7651 18.2643 77.3374V22.7703C18.2115 18.9633 21.2782 15.8966 25.0852 15.8966H62.0978C62.9967 15.8966 63.684 16.584 63.684 17.4828C63.684 18.3817 62.9967 19.0691 62.0978 19.0691H25.0852C23.0231 19.0691 21.384 20.7082 21.384 22.7703V77.3374C21.384 77.9191 21.5955 78.4478 22.0185 78.8708C22.4415 79.2938 22.9702 79.5053 23.5519 79.4524C24.7151 79.3996 25.614 78.5007 25.614 77.3374V30.1729C25.614 26.3658 28.6807 23.2991 32.4877 23.2991H74.7878C78.5948 23.2991 81.6616 26.3658 81.6616 30.1729V80.9329C81.6616 81.8318 80.9742 82.5192 80.0753 82.5192C79.1764 82.5192 78.4891 81.8318 78.4891 80.9329V30.1729C78.4891 28.1107 76.8499 26.4716 74.7878 26.4716H32.4877C30.4256 26.4716 28.7865 28.1107 28.7865 30.1729V77.3374C28.7865 80.1927 26.5129 82.5192 23.6576 82.6249C23.6047 82.6249 23.5519 82.6249 23.499 82.6249Z" fill="#090909"/>
<path d="M72.6734 19.0691H70.0296C69.1307 19.0691 68.4434 18.3817 68.4434 17.4828C68.4434 16.584 69.1307 15.8966 70.0296 15.8966H72.6734C73.5722 15.8966 74.2596 16.584 74.2596 17.4828C74.2596 18.3817 73.5722 19.0691 72.6734 19.0691Z" fill="#090909"/>
<path d="M64.2129 50.7941H43.0628C42.1639 50.7941 41.4766 50.1068 41.4766 49.2079C41.4766 48.309 42.1639 47.6216 43.0628 47.6216H64.2129C65.1117 47.6216 65.7991 48.309 65.7991 49.2079C65.7991 50.1068 65.1117 50.7941 64.2129 50.7941Z" fill="#96C889"/>
<path d="M64.2129 58.7254H43.0628C42.1639 58.7254 41.4766 58.038 41.4766 57.1391C41.4766 56.2402 42.1639 55.5529 43.0628 55.5529H64.2129C65.1117 55.5529 65.7991 56.2402 65.7991 57.1391C65.7991 58.038 65.1117 58.7254 64.2129 58.7254Z" fill="#96C889"/>
<path d="M64.2129 66.6566H43.0628C42.1639 66.6566 41.4766 65.9693 41.4766 65.0704C41.4766 64.1715 42.1639 63.4841 43.0628 63.4841H64.2129C65.1117 63.4841 65.7991 64.1715 65.7991 65.0704C65.7991 65.9693 65.1117 66.6566 64.2129 66.6566Z" fill="#96C889"/>
<path d="M64.2126 82.5192H58.9251C58.0262 82.5192 57.3389 81.8318 57.3389 80.933C57.3389 80.0341 58.0262 79.3467 58.9251 79.3467H64.2126C65.1115 79.3467 65.7989 80.0341 65.7989 80.933C65.7989 81.8318 65.1115 82.5192 64.2126 82.5192Z" fill="#96C889"/>
</svg>
