<svg width="172" height="172" viewBox="0 0 172 172" fill="none" xmlns="http://www.w3.org/2000/svg">
<circle cx="86" cy="86" r="86" fill="#97AAB1"/>
<mask id="mask0_1107_44919" style="mask-type:alpha" maskUnits="userSpaceOnUse" x="0" y="0" width="172" height="172">
<circle cx="86" cy="86" r="86" fill="#F7F8F0"/>
</mask>
<g mask="url(#mask0_1107_44919)">
<path d="M107.59 66.3184C109.178 63.3555 110.13 59.8636 110.13 56.1601C110.13 44.2029 100.501 34.5737 88.7552 34.5737C77.0097 34.5737 67.3805 44.2029 67.3805 56.1601C67.3805 56.6892 67.3805 57.1124 67.4863 57.6415C56.4815 61.345 48.6511 71.8208 48.6511 84.2012C48.6511 99.6502 61.1373 112.242 76.4806 112.242H99.5484C112.564 112.242 123.039 101.661 123.039 88.5396C122.934 78.3813 116.585 69.7045 107.59 66.3184Z" fill="#96C889"/>
<path d="M85.7923 61.6621C83.9934 61.6621 82.6178 63.0377 82.6178 64.8366V79.2275L70.1316 72.8785C69.7083 72.6669 69.1793 72.5611 68.6502 72.5611C67.4862 72.5611 66.428 73.196 65.899 74.2542C65.1583 75.8414 65.6873 77.7461 67.2746 78.4868L82.512 86.4229V103.459C82.512 105.258 83.8876 106.634 85.6865 106.634C87.4853 106.634 88.8609 105.258 88.8609 103.459V101.555L104.204 93.83C105.791 92.9835 106.426 91.0788 105.686 89.4916C105.157 88.4334 104.098 87.6927 102.934 87.6927C102.405 87.6927 101.982 87.7985 101.453 88.116L88.9667 94.4649V64.8366C88.9667 63.0377 87.5911 61.6621 85.7923 61.6621Z" fill="white"/>
<path d="M99.3367 115.522H76.2689C59.2327 115.522 45.265 101.555 45.265 84.3068C45.265 71.7148 52.7779 60.4983 64.1002 55.6308C64.5234 42.1922 75.3166 31.5049 88.6494 31.5049C102.194 31.5049 113.199 42.6155 113.199 56.2657C113.199 59.1227 112.669 62.0855 111.717 64.7309C120.394 69.281 126.002 78.4869 126.002 88.5394C126.108 103.459 114.151 115.522 99.3367 115.522ZM88.6494 37.8538C78.5969 37.8538 70.4491 46.1074 70.4491 56.2657C70.4491 56.689 70.4491 57.1122 70.4491 57.5355C70.5549 59.0169 69.7084 60.2867 68.3328 60.7099C58.2803 64.096 51.6139 73.6194 51.6139 84.201C51.6139 97.957 62.6187 109.068 76.2689 109.068H99.3367C110.553 109.068 119.653 99.8617 119.653 88.5394C119.653 79.9684 114.363 72.2438 106.426 69.281C105.58 68.9636 104.945 68.3287 104.522 67.4821C104.204 66.6356 104.204 65.6833 104.733 64.8368C106.109 62.1914 106.85 59.2285 106.85 56.1599C106.85 46.1074 98.7018 37.8538 88.6494 37.8538ZM85.6865 140.495C83.8877 140.495 82.5121 139.119 82.5121 137.32V120.919C82.5121 119.12 83.8877 117.744 85.6865 117.744C87.4854 117.744 88.861 119.12 88.861 120.919V137.32C88.861 139.119 87.4854 140.495 85.6865 140.495Z" fill="#090909"/>
</g>
</svg>
