<svg width="32" height="34" viewBox="0 0 32 34" fill="none" xmlns="http://www.w3.org/2000/svg">
<path fill-rule="evenodd" clip-rule="evenodd" d="M6.39271 9.11564C6.40722 9.11504 6.42174 9.11475 6.43627 9.11475H25.5637C25.5782 9.11475 25.5927 9.11504 25.6072 9.11564C26.4347 9.14962 27.22 9.49016 27.8103 10.071C28.3854 10.6369 28.7354 11.3915 28.7969 12.1945L31.821 30.1005C31.8226 30.11 31.8241 30.1195 31.8254 30.129C31.891 30.594 31.8592 31.0675 31.732 31.5195C31.6047 31.9716 31.3849 32.3922 31.0864 32.7547C30.7879 33.1172 30.4172 33.4136 29.998 33.6252C29.5788 33.8367 29.1201 33.9588 28.6512 33.9836C28.6325 33.9846 28.6138 33.9851 28.5951 33.9851H3.40481C3.38612 33.9851 3.36742 33.9846 3.34875 33.9836C2.87981 33.9588 2.42117 33.8367 2.00195 33.6252C1.58272 33.4136 1.21208 33.1172 0.913568 32.7547C0.615057 32.3922 0.395201 31.9716 0.267967 31.5195C0.140733 31.0675 0.108902 30.594 0.174497 30.129C0.17584 30.1195 0.177312 30.11 0.178912 30.1005L3.20307 12.1945C3.26452 11.3915 3.61454 10.6369 4.18963 10.071C4.77995 9.49016 5.56522 9.14962 6.39271 9.11564ZM6.46145 11.2378C6.16731 11.2544 5.88899 11.3774 5.6787 11.5843C5.46404 11.7956 5.33561 12.0791 5.3184 12.3798C5.31617 12.4187 5.3118 12.4574 5.30531 12.4959L2.27511 30.4377C2.25286 30.6072 2.26527 30.7796 2.31163 30.9443C2.35909 31.1129 2.4411 31.2698 2.55246 31.405C2.66382 31.5403 2.80208 31.6509 2.95847 31.7298C3.10777 31.8051 3.27047 31.85 3.43711 31.862H28.5628C28.7295 31.85 28.8922 31.8051 29.0415 31.7298C29.1979 31.6509 29.3361 31.5403 29.4475 31.405C29.5588 31.2698 29.6409 31.1129 29.6883 30.9443C29.7347 30.7796 29.7471 30.6072 29.7248 30.4377L26.6946 12.4959C26.6881 12.4574 26.6838 12.4187 26.6815 12.3798C26.6643 12.0791 26.5359 11.7956 26.3212 11.5843C26.1109 11.3774 25.8326 11.2544 25.5385 11.2378H6.46145Z" fill="#090909"/>
<path fill-rule="evenodd" clip-rule="evenodd" d="M16.0032 0.015625C17.5744 0.0202937 19.0951 0.571491 20.3043 1.57469C21.5136 2.57788 22.3362 3.97056 22.631 5.51389C22.741 6.08976 22.3633 6.64575 21.7874 6.75574C21.2116 6.86573 20.6556 6.48807 20.5456 5.91221C20.3433 4.85301 19.7788 3.89719 18.9488 3.20869C18.1197 2.52086 17.0773 2.14264 16.0001 2.1387C14.9268 2.14266 13.888 2.51805 13.0601 3.20115C12.2313 3.88493 11.6652 4.83476 11.458 5.88898C11.3449 6.46425 10.7869 6.83892 10.2116 6.72584C9.63635 6.61277 9.26167 6.05476 9.37475 5.47949C9.67666 3.94358 10.5015 2.55975 11.7089 1.56355C12.9163 0.567343 14.4316 0.0203345 15.9969 0.0156251L16 1.07716L16.0032 0.015625Z" fill="#090909"/>
</svg>
