<svg width="172" height="172" viewBox="0 0 172 172" fill="none" xmlns="http://www.w3.org/2000/svg">
<circle cx="86" cy="86" r="86" fill="#97AAB1"/>
<mask id="mask0_1107_44122" style="mask-type:alpha" maskUnits="userSpaceOnUse" x="0" y="0" width="172" height="172">
<circle cx="86" cy="86" r="86" fill="#F7F8F0"/>
</mask>
<g mask="url(#mask0_1107_44122)">
<path d="M49.3063 65.168L72.2832 40.8126L75.8063 39.2808L84.8439 48.931L99.8554 70.2229L102.766 89.2171L93.7282 93.1998L84.8439 103.616L83.6184 112.041L77.6444 115.717L55.1271 111.122L43.3323 91.3616L49.3063 65.168Z" fill="#96C889"/>
<path d="M106.251 86.0004C106.251 61.6063 76.5892 34.9588 75.3261 33.8369C74.0715 32.721 72.1792 32.721 70.9246 33.8369C69.6617 34.959 40 61.6063 40 86.0004C40 104.265 54.8603 119.125 73.125 119.125C75.5866 119.125 78.0192 118.854 80.3959 118.322C83.0562 130.144 93.6379 139 106.25 139C120.862 139 132.75 127.112 132.75 112.5C132.75 97.8879 120.862 86 106.25 86L106.251 86.0004ZM46.6257 86.0004C46.6257 68.1297 66.4097 47.389 73.1274 40.8612C79.8477 47.3848 99.6257 68.1023 99.6257 86.0004C99.6257 86.2799 99.6194 86.5614 99.6112 86.843C88.4626 89.729 80.1399 99.7096 79.7653 111.66C77.606 112.217 75.3825 112.501 73.1259 112.501C58.5138 112.501 46.6259 100.613 46.6259 86.0008L46.6257 86.0004ZM106.251 132.375C95.2929 132.375 86.3757 123.458 86.3757 112.5C86.3757 101.543 95.2929 92.6254 106.251 92.6254C117.208 92.6254 126.126 101.543 126.126 112.5C126.126 123.458 117.208 132.375 106.251 132.375Z" fill="black"/>
<path d="M112.876 109.187H105.816L109.008 104.401C110.023 102.879 109.611 100.821 108.089 99.8068C106.567 98.7924 104.51 99.2022 103.495 100.726L96.8701 110.663C96.1931 111.68 96.129 112.986 96.7066 114.063C97.2821 115.139 98.4063 115.812 99.6277 115.812H106.688L103.495 120.599C102.481 122.121 102.893 124.178 104.414 125.193C104.979 125.57 105.617 125.75 106.249 125.75C107.319 125.75 108.369 125.232 109.008 124.274L115.633 114.336C116.31 113.32 116.374 112.013 115.797 110.937C115.221 109.86 114.097 109.187 112.876 109.187Z" fill="white"/>
</g>
</svg>
